<?xml version="1.0" encoding="UTF-8"?>
<svg id="Layer_2" data-name="Layer 2" xmlns="http://www.w3.org/2000/svg" xmlns:xlink="http://www.w3.org/1999/xlink" viewBox="0 0 881 170">
  <defs>
    <style>
      .cls-1 {
        filter: url(#drop-shadow-1);
        font-family: Exo2-Black, 'Exo 2';
        font-size: 53.5px;
        font-weight: 800;
      }

      .cls-1, .cls-2 {
        fill: #f4dd7a;
      }

      .cls-3 {
        letter-spacing: -.02em;
      }

      .cls-2 {
        filter: url(#drop-shadow-2);
      }
    </style>
    <filter id="drop-shadow-1" filterUnits="userSpaceOnUse">
      <feOffset dx="7" dy="7"/>
      <feGaussianBlur result="blur" stdDeviation="5"/>
      <feFlood flood-color="#000" flood-opacity=".5"/>
      <feComposite in2="blur" operator="in"/>
      <feComposite in="SourceGraphic"/>
    </filter>
    <filter id="drop-shadow-2" filterUnits="userSpaceOnUse">
      <feOffset dx="7" dy="7"/>
      <feGaussianBlur result="blur-2" stdDeviation="5"/>
      <feFlood flood-color="#000" flood-opacity=".5"/>
      <feComposite in2="blur-2" operator="in"/>
      <feComposite in="SourceGraphic"/>
    </filter>
  </defs>
  <g id="OBJECTS">
    <text class="cls-1" transform="translate(315.29 116.63)"><tspan x="0" y="0">Cloud</tspan><tspan class="cls-3" x="150.28" y="0"> </tspan><tspan x="160.29" y="0">Automatic 1111</tspan></text>
    <path class="cls-2" d="m287.36,114.24c0-11.69-5.27-22.45-14.84-30.29-7.88-6.46-18.32-10.47-27.25-10.47-1.36,0-2.72.09-4.05.27-5.83-13.22-18.89-21.83-33.68-21.83-3.62,0-7.28.56-10.77,1.64-7.07-14.05-21.7-23.2-37.75-23.2-6.11,0-11.89,1.25-17.25,3.71-8.15-15.51-24.14-25.28-42.05-25.28-25.19,0-45.89,19.6-47.66,44.34-18.76,4.5-32.47,21.55-32.47,41.17,0,.49.08.95.21,1.39-6.39,1.89-11.08,7.8-11.08,14.8,0,8.51,6.92,15.43,15.43,15.43s15.43-6.92,15.43-15.43c0-6.94-4.61-12.82-10.93-14.76.15-.45.23-.93.23-1.43,0-16.35,12.19-30.4,28.35-32.7,2.29-.33,4-2.29,4-4.61v-.43c0-21.22,17.26-38.47,38.47-38.47,15.82,0,29.78,9.47,35.57,24.12.51,1.28,1.56,2.28,2.87,2.71,1.31.43,2.75.26,3.92-.47,5.11-3.18,10.81-4.8,16.95-4.8,13.76,0,26.17,8.61,30.89,21.43.45,1.22,1.38,2.19,2.58,2.69,1.2.5,2.55.47,3.73-.07,3.54-1.63,7.45-2.49,11.32-2.49,12.13,0,22.7,7.74,26.29,19.26.75,2.41,3.29,3.78,5.72,3.09,1.84-.52,3.76-.79,5.73-.79,11.76,0,32.78,10.51,32.78,31.51,0,.1-.08,9.91-6.87,16.77-4.67,4.72-11.58,7.12-20.52,7.12H79.47s-4.41-.06-8.7-2.2c-5.52-2.76-8.21-7.57-8.21-14.71,0-16.28,15.2-16.89,16.91-16.91h98.93c1.98,6.24,7.82,10.78,14.71,10.78,8.51,0,15.43-6.92,15.43-15.43s-6.92-15.43-15.43-15.43c-6.89,0-12.74,4.54-14.71,10.78h-98.93c-9.07,0-26.22,5.48-26.22,26.22s17.15,26.22,26.22,26.22h171.2c11.52,0,20.65-3.32,27.14-9.88,9.59-9.7,9.56-22.86,9.55-23.36Zm-263.19,2.38c-3.38,0-6.13-2.75-6.13-6.13s2.75-6.13,6.13-6.13,6.13,2.75,6.13,6.13-2.75,6.13-6.13,6.13Zm168.95-23.05c3.38,0,6.13,2.75,6.13,6.13s-2.75,6.13-6.13,6.13-6.13-2.75-6.13-6.13,2.75-6.13,6.13-6.13Z"/>
  </g>
</svg>